Coordinates
version=1
nRows=11
nColumns=40
inDegrees=yes

Units are S.I. units (second, meters, Newtons, ...)
Angles are in degrees.

endheader
time	pelvis_tilt	pelvis_list	pelvis_rotation	pelvis_tx	pelvis_ty	pelvis_tz	hip_flexion_r	hip_adduction_r	hip_rotation_r	knee_angle_r	knee_angle_r_beta	ankle_angle_r	subtalar_angle_r	mtp_angle_r	hip_flexion_l	hip_adduction_l	hip_rotation_l	knee_angle_l	knee_angle_l_beta	ankle_angle_l	subtalar_angle_l	mtp_angle_l	lumbar_extension	lumbar_bending	lumbar_rotation	arm_flex_r	arm_add_r	arm_rot_r	elbow_flex_r	pro_sup_r	wrist_flex_r	wrist_dev_r	arm_flex_l	arm_add_l	arm_rot_l	elbow_flex_l	pro_sup_l	wrist_flex_l	wrist_dev_l
     35.22000000	     -6.53394770	     -3.98744270	     -1.55209348	      0.99149102	      0.92868825	      0.45848742	     32.22467911	     -6.63896425	     -6.47770595	     72.53726394	     72.53726394	      2.37391077	    -14.59291526	      0.60032261	     19.05274238	     -5.40977563	     -6.09151464	     23.42517313	     23.42517313	     13.64160004	     -5.46141656	      0.77069792	    -11.03767552	      3.25858193	      1.62674436	     17.62195569	    -15.74258925	     -2.58387231	     41.76992481	     45.26817869	      0.00000000	      0.00000000	     10.57708947	    -15.48151533	      4.73301737	     46.84595883	     45.81874876	      0.00000000	      0.00000000
     35.23157143	     -6.56671849	     -4.11480921	     -1.55672674	      0.99143566	      0.92929652	      0.45850165	     33.51990596	     -6.46009422	     -6.44242545	     71.00232477	     71.00232477	      2.44568649	    -13.91672600	      0.51759410	     18.18510523	     -5.48081946	     -6.04834236	     22.89825247	     22.89825247	     14.06130532	     -5.36054305	      0.71331998	    -11.02203710	      3.54180565	      1.10044291	     15.48283492	    -15.53108063	     -2.38814747	     40.73391643	     45.28612331	      0.00000000	      0.00000000	     11.96145154	    -16.21762722	      4.43307478	     47.57510979	     45.86999059	      0.00000000	      0.00000000
     35.24314286	     -6.43134655	     -4.10273246	     -1.65699974	      0.99161756	      0.93031652	      0.45842310	     34.43629499	     -6.40606069	     -6.30897782	     69.14014624	     69.14014624	      2.42587573	    -13.08814049	      0.20644668	     16.79619114	     -5.36862612	     -6.17772785	     21.76714542	     21.76714542	     14.32001888	     -5.09584762	      0.72598895	    -11.23569219	      3.63802533	      1.82349848	     12.88360747	    -16.11336854	     -2.07105460	     38.76221171	     45.33497426	      0.00000000	      0.00000000	     13.70849447	    -16.11408804	      4.19094601	     49.53013821	     45.93723634	      0.00000000	      0.00000000
     35.25471429	     -6.47460754	     -4.14498303	     -1.73891808	      0.99148055	      0.93057639	      0.45859492	     35.47219764	     -6.16680497	     -6.07922087	     67.11693489	     67.11693489	      2.41666363	    -12.47450939	      0.25920845	     16.08664325	     -5.39011961	     -6.25788965	     21.49524754	     21.49524754	     14.70609293	     -5.12652060	      0.57701373	    -11.23064219	      3.81780328	      1.21219813	     11.04471258	    -15.90112204	     -1.92392318	     37.92115356	     45.34859936	      0.00000000	      0.00000000	     15.00721943	    -16.99015282	      3.88428411	     50.26587081	     45.98555822	      0.00000000	      0.00000000
     35.26628571	     -6.23354033	     -4.17553360	     -1.92916664	      0.99175194	      0.93142576	      0.45887335	     35.97165884	     -5.97940745	     -5.93467947	     64.70819008	     64.70819008	      2.25178590	    -11.78332194	     -0.10945980	     14.53360443	     -5.33255645	     -6.37188899	     20.26991573	     20.26991573	     14.86262725	     -4.96248277	      0.29740346	    -11.62975631	      3.90479502	      2.45800469	      8.37514346	    -16.37936637	     -1.47419267	     35.45221625	     45.41208567	      0.00000000	      0.00000000	     16.67682342	    -16.88453276	      3.76314819	     53.37760657	     46.05912321	      0.00000000	      0.00000000
     35.27785714	     -6.35251866	     -4.27098415	     -1.98185149	      0.99171319	      0.93137555	      0.45923515	     36.72919421	     -5.72621868	     -5.90448400	     62.04170186	     62.04170186	      2.19616403	    -11.20740345	      0.01783068	     13.82509056	     -5.40259380	     -6.33081741	     19.80968272	     19.80968272	     15.18319875	     -4.89631875	      0.09356208	    -11.52593514	      4.15598382	      1.97969044	      6.47421933	    -16.11185103	     -1.30242454	     34.46432455	     45.43014156	      0.00000000	      0.00000000	     17.80830318	    -17.61545418	      3.50097427	     54.44417361	     46.10619814	      0.00000000	      0.00000000
     35.28942857	     -6.24130730	     -4.29930325	     -2.14938375	      0.99193739	      0.93163674	      0.45977864	     36.96769178	     -5.43868898	     -5.77280769	     58.82624520	     58.82624520	      1.58591436	    -10.94235803	     -1.70253280	     12.49966530	     -5.33558398	     -6.32900373	     18.63468267	     18.63468267	     14.60474717	     -5.28838665	     -1.71158372	    -11.79928277	      4.23599351	      1.79291973	      5.40242264	    -15.88337681	     -0.58807822	     31.09926170	     45.56023653	      0.00000000	      0.00000000	     17.54847422	    -18.74932608	      3.51003752	     59.97483811	     46.24144350	      0.00000000	      0.00000000
     35.30100000	     -6.20624201	     -4.38632425	     -2.30406003	      0.99210568	      0.93158617	      0.46047976	     37.17000754	     -5.09171433	     -5.73810994	     55.40417658	     55.40417658	      1.62404407	    -10.31031831	     -1.49839812	     11.54216263	     -5.41190966	     -6.37892596	     18.06744999	     18.06744999	     14.91768917	     -5.21626873	     -1.85126494	    -11.91258908	      4.45051347	      2.06442594	      3.29582269	    -15.83301631	     -0.40330382	     29.93021835	     45.58690151	      0.00000000	      0.00000000	     18.84386575	    -18.91644514	      2.96462361	     61.62574869	     46.32667270	      0.00000000	      0.00000000
     35.31257143	     -6.22583230	     -4.42201509	     -2.47284074	      0.99235882	      0.93129452	      0.46131546	     37.25783196	     -4.78254580	     -5.77471739	     51.64840989	     51.64840989	      1.62094613	     -9.61923123	     -1.30133535	     10.65005176	     -5.44546384	     -6.50544635	     17.51972065	     17.51972065	     15.19464632	     -5.16232484	     -2.04585856	    -11.93820498	      4.59475651	      2.27340462	      1.20525013	    -15.68659370	     -0.29194784	     28.86501905	     45.61427062	      0.00000000	      0.00000000	     19.90996299	    -19.15251378	      2.44768954	     63.67836570	     46.41255197	      0.00000000	      0.00000000
     35.32414286	     -6.24631429	     -4.38492725	     -2.67419628	      0.99274377	      0.93075036	      0.46230781	     37.13927194	     -4.49605932	     -5.83333311	     47.52668555	     47.52668555	      1.22215959	     -9.02739846	     -2.27712987	      9.72995444	     -5.40756391	     -6.64443114	     16.91891087	     16.91891087	     15.18877864	     -5.24528605	     -2.92851354	    -12.02965618	      4.61902794	      1.82626561	     -0.32574537	    -15.29148063	     -0.48288474	     27.72811367	     45.70810905	      0.00000000	      0.00000000	     19.61822983	    -20.01746156	      1.14429788	     68.26064593	     46.63517441	      0.00000000	      0.00000000
     35.33571429	     -6.29847877	     -4.41210203	     -2.84721228	      0.99324940	      0.93010913	      0.46340738	     36.85142010	     -4.15129745	     -6.10460866	     43.16452765	     43.16452765	      1.21070120	     -7.99898684	     -1.76650277	      8.91439155	     -5.45552518	     -6.75884170	     16.49090212	     16.49090212	     15.52985131	     -5.16774085	     -3.06016949	    -11.95924108	      4.76327008	      1.97821798	     -2.31291210	    -15.08606068	     -0.42228894	     26.86082697	     45.72946819	      0.00000000	      0.00000000	     20.64215975	    -20.20738483	      0.64779585	     69.85120579	     46.70905832	      0.00000000	      0.00000000
